<svg width="178" height="50" viewBox="0 0 178 50" fill="none" xmlns="http://www.w3.org/2000/svg">
<g clip-path="url(#clip0_1967_2839)">
<path d="M4.37168 26.7609H10.9051V23.2391H4.37168V19.5217H12.357V16H0.5V33.6087H4.37168V26.7609Z" fill="#151515"/>
<path d="M13.6832 27.0054V33.6087H17.3129V27.0054C17.3129 24.9755 18.9342 23.337 20.9426 23.337V20.0109H20.4586C16.4418 20.0109 13.6832 23.1413 13.6832 27.0054Z" fill="#151515"/>
<path d="M29.0574 20.0109C25.0406 20.0109 21.798 23.1413 21.798 27.0054C21.798 30.8696 25.0406 34 29.0574 34C32.2516 34 34.9618 32.019 35.9297 29.2554H31.9128C31.2595 30.1114 30.2189 30.6739 29.0574 30.6739C27.4846 30.6739 26.1779 29.6712 25.6455 28.2772H36.1959C36.2685 27.8614 36.3169 27.4457 36.3169 27.0054C36.3169 23.1413 33.0743 20.0109 29.0574 20.0109ZM25.6455 25.7337C26.1779 24.3397 27.4846 23.337 29.0574 23.337C30.6061 23.337 31.937 24.3397 32.4694 25.7337H25.6455Z" fill="#151515"/>
<path d="M44.2453 25.8315C42.8418 25.6603 41.2447 25.0489 41.2447 24.2663C41.2447 23.3859 41.9949 23.0924 42.7934 23.0924C43.5919 23.0924 44.3421 23.3859 44.3421 24.5109H47.9718C47.9718 21.6739 45.6004 20.0109 42.7934 20.0109C39.9864 20.0109 37.615 21.6739 37.615 24.3641C37.615 26.4429 40.059 28.0082 42.5998 28.3261C43.6887 28.4728 44.4873 29.0353 44.4873 29.6467C44.4873 30.5027 43.5919 30.9185 42.7934 30.9185C41.9949 30.9185 41.0995 30.625 41.0995 29.5H37.4698C37.4698 32.337 39.9864 34 42.7934 34C45.6004 34 48.117 32.337 48.117 29.5C48.117 27.2745 46.1569 26.0516 44.2453 25.8315Z" fill="#151515"/>
<path d="M56.7821 20.0109C55.5722 20.0109 54.4833 20.4511 53.6364 21.1848V16H50.0067V33.6087H53.6364V26.981C53.6364 24.9755 54.7737 23.337 56.7821 23.337C58.7906 23.337 59.9279 24.9755 59.9279 27.0054V33.6087H63.5576V27.0054C63.5576 23.1413 60.799 20.0109 56.7821 20.0109Z" fill="#151515"/>
<path d="M72.5175 20.0109C68.5006 20.0109 65.742 23.1413 65.742 27.0054V33.6087H69.3717V27.0054C69.3717 24.9755 70.509 23.337 72.5175 23.337C74.5259 23.337 75.6632 24.9755 75.6632 27.0054V33.6087H79.2929V27.0054C79.2929 23.1413 76.5343 20.0109 72.5175 20.0109Z" fill="#151515"/>
<path d="M88.1346 20.0109C84.1178 20.0109 80.8752 23.1413 80.8752 27.0054C80.8752 30.8696 84.1178 34 88.1346 34C91.3288 34 94.039 32.019 95.0069 29.2554H90.99C90.3367 30.1114 89.2962 30.6739 88.1346 30.6739C86.5618 30.6739 85.2551 29.6712 84.7227 28.2772H95.2731C95.3457 27.8614 95.3941 27.4457 95.3941 27.0054C95.3941 23.1413 92.1515 20.0109 88.1346 20.0109ZM84.7227 25.7337C85.2551 24.3397 86.5618 23.337 88.1346 23.337C89.6833 23.337 91.0142 24.3397 91.5466 25.7337H84.7227Z" fill="#151515"/>
<path d="M103.322 25.8315C101.919 25.6603 100.322 25.0489 100.322 24.2663C100.322 23.3859 101.072 23.0924 101.871 23.0924C102.669 23.0924 103.419 23.3859 103.419 24.5109H107.049C107.049 21.6739 104.678 20.0109 101.871 20.0109C99.0636 20.0109 96.6922 21.6739 96.6922 24.3641C96.6922 26.4429 99.1362 28.0082 101.677 28.3261C102.766 28.4728 103.564 29.0353 103.564 29.6467C103.564 30.5027 102.669 30.9185 101.871 30.9185C101.072 30.9185 100.177 30.625 100.177 29.5H96.547C96.547 32.337 99.0636 34 101.871 34C104.678 34 107.194 32.337 107.194 29.5C107.194 27.2745 105.234 26.0516 103.322 25.8315Z" fill="#151515"/>
<path d="M115.617 20.0109C111.6 20.0109 108.358 23.1413 108.358 27.0054C108.358 30.8696 111.6 34 115.617 34C118.811 34 121.522 32.019 122.49 29.2554H118.473C117.819 30.1114 116.779 30.6739 115.617 30.6739C114.044 30.6739 112.738 29.6712 112.205 28.2772H122.756C122.828 27.8614 122.877 27.4457 122.877 27.0054C122.877 23.1413 119.634 20.0109 115.617 20.0109ZM112.205 25.7337C112.738 24.3397 114.044 23.337 115.617 23.337C117.166 23.337 118.497 24.3397 119.029 25.7337H112.205Z" fill="#151515"/>
<path d="M131.096 23.337C132.499 23.337 133.685 24.1196 134.314 25.2935H138.137C137.339 22.2609 134.483 20.0109 131.096 20.0109C127.079 20.0109 123.836 23.1413 123.836 27.0054C123.836 30.8696 127.079 34 131.096 34C134.459 34 137.266 31.7989 138.089 28.8152H134.193C133.588 29.9158 132.451 30.6739 131.096 30.6739C129.087 30.6739 127.466 29.0353 127.466 27.0054C127.466 24.9755 129.087 23.337 131.096 23.337Z" fill="#151515"/>
<path d="M153.429 27.0054C153.429 23.1413 150.211 20.0109 146.218 20.0109C142.226 20.0109 139.007 23.1413 139.007 27.0054C139.007 30.8696 142.226 34 146.218 34C150.211 34 153.429 30.8696 153.429 27.0054ZM149.8 27.0054C149.8 29.0353 148.202 30.6739 146.218 30.6739C144.234 30.6739 142.637 29.0353 142.637 27.0054C142.637 24.9755 144.234 23.337 146.218 23.337C148.202 23.337 149.8 24.9755 149.8 27.0054Z" fill="#151515"/>
<path d="M170.967 20.0109C169.079 20.0109 167.385 20.8668 166.248 22.2364C165.111 20.8668 163.417 20.0109 161.529 20.0109C157.512 20.0109 154.996 23.1413 154.996 27.0054V33.6087H158.626V27.0054C158.626 24.9755 159.521 23.337 161.529 23.337C163.538 23.337 164.433 24.9755 164.433 27.0054V33.6087H168.063V27.0054C168.063 24.9755 168.958 23.337 170.967 23.337C172.975 23.337 173.87 24.9755 173.87 27.0054V33.6087H177.5V27.0054C177.5 23.1413 174.983 20.0109 170.967 20.0109Z" fill="#151515"/>
</g>
<defs>
<clipPath id="clip0_1967_2839">
<rect width="177" height="50" fill="white" transform="translate(0.5)"/>
</clipPath>
</defs>
</svg>
