<svg width="17" height="16" viewBox="0 0 17 16" xmlns="http://www.w3.org/2000/svg">
<path fill-rule="evenodd" clip-rule="evenodd" d="M7.94835 2.12663C7.9944 1.9806 8.08581 1.85306 8.20929 1.76252C8.33277 1.67198 8.4819 1.62317 8.63502 1.62317C8.78814 1.62317 8.93727 1.67198 9.06075 1.76252C9.18423 1.85306 9.27564 1.9806 9.32169 2.12663L10.5617 5.93996H14.5617C14.7203 5.93397 14.8765 5.98006 15.0064 6.07119C15.1363 6.16232 15.2329 6.29348 15.2812 6.44464C15.3296 6.5958 15.3272 6.75863 15.2743 6.90827C15.2214 7.0579 15.121 7.18611 14.9884 7.2733L11.7417 9.62663L12.9817 13.4466C13.0307 13.5921 13.032 13.7495 12.9852 13.8958C12.9385 14.042 12.8462 14.1695 12.7218 14.2596C12.5975 14.3497 12.4476 14.3977 12.2941 14.3966C12.1405 14.3954 11.9913 14.3452 11.8684 14.2533L8.61502 11.8733L5.36835 14.2333C5.24536 14.3252 5.0962 14.3754 4.94265 14.3766C4.7891 14.3777 4.63921 14.3297 4.51487 14.2396C4.39052 14.1495 4.29824 14.022 4.25149 13.8758C4.20474 13.7295 4.20598 13.5721 4.25502 13.4266L5.49502 9.60663L2.24835 7.2533C2.11574 7.16611 2.01532 7.0379 1.96243 6.88827C1.90955 6.73863 1.9071 6.5758 1.95547 6.42464C2.00384 6.27348 2.10037 6.14232 2.2303 6.05119C2.36023 5.96006 2.51643 5.91397 2.67502 5.91996H6.67502L7.94835 2.12663Z" stroke-linecap="round" stroke-linejoin="round"/>
</svg>
